<?xml version="1.0"?>
<svg version="1.1" xmlns="http://www.w3.org/2000/svg" width="300px" height="100px" style=""><path fill="#e6ed1f" d="M28.088,69.584q0-2.304,1.632-4.176q1.632-1.968,3.936-1.968l0.624,0l8.976,0l0-2.976l-8.976,0l-0.624,0q-2.448-0.48-4.008-2.112t-1.56-3.888q0-2.832,1.656-4.488t4.536-1.656l16.32,0l0-3.024l-16.32,0q-3.696,0-6.432,2.736q-2.736,2.64-2.736,6.432q0,2.4,0.912,4.368t2.688,2.832q-1.776,1.296-2.688,3.408t-0.912,4.512q0,3.744,2.736,6.384q2.784,2.784,6.432,2.784l16.32,0l0-3.168l-16.32,0q-2.88,0-4.536-1.632t-1.656-4.368z M82.22432,45.008l-3.648,0l-10.224,25.392l-9.648-25.392l-3.024,0l12.672,33.792z M101.32064,45.2q-5.424,0-9.312,3.888q-3.936,3.936-3.936,9.36l0,7.248q0,5.328,3.936,9.264t9.312,3.936q5.424,0,9.36-3.936q3.888-3.888,3.888-9.264l0-7.248q0-5.472-3.888-9.36t-9.36-3.888z M111.59264,58.448l0,7.248q0,4.368-3.072,7.344q-3.024,2.88-7.2,2.88t-7.152-2.88q-3.072-2.976-3.072-7.344l0-7.248q0-4.032,3.072-7.2q3.072-3.072,7.152-3.072q4.032,0,7.2,3.072q3.072,3.168,3.072,7.2z M121.85696,78.896l23.472,0l0-2.448l-20.496,0l0-31.248l-2.976,0l0,33.696z M177.38528,45.152l-3.024,0l0,20.496q0,4.416-3.072,7.392q-3.024,2.88-7.2,2.88q-4.56,0-7.344-2.88q-2.832-2.928-2.832-7.392l0-20.496l-3.072,0l0,20.496q0,5.472,3.744,9.312q3.792,3.936,9.504,3.936q5.328,0,9.36-3.936q3.936-3.84,3.936-9.312l0-20.496z M209.2496,45.2l-26.016,0l0,2.928l11.808,0l0,30.768l2.976,0l0-30.768l11.232,0l0-2.928z M215.43392,78.848l3.024,0l0-33.744l-3.024,0l0,33.744z M238.89824,45.2q-5.424,0-9.312,3.888q-3.936,3.936-3.936,9.36l0,7.248q0,5.328,3.936,9.264t9.312,3.936q5.424,0,9.36-3.936q3.888-3.888,3.888-9.264l0-7.248q0-5.472-3.888-9.36t-9.36-3.888z M249.17024,58.448l0,7.248q0,4.368-3.072,7.344q-3.024,2.88-7.2,2.88t-7.152-2.88q-3.072-2.976-3.072-7.344l0-7.248q0-4.032,3.072-7.2q3.072-3.072,7.152-3.072q4.032,0,7.2,3.072q3.072,3.168,3.072,7.2z M259.19456,78.8l2.976,0l0-20.352q0-4.032,3.072-7.2q3.072-3.072,7.104-3.072t7.2,3.072q3.072,3.168,3.072,7.2l0,20.352l2.976,0l0-20.352q0-5.472-3.888-9.36t-9.36-3.888q-5.376,0-9.264,3.888t-3.888,9.36l0,20.352z"/><path fill="#ffffff" d="M26.088,69.584q0-2.304,1.632-4.176q1.632-1.968,3.936-1.968l0.624,0l8.976,0l0-2.976l-8.976,0l-0.624,0q-2.448-0.48-4.008-2.112t-1.56-3.888q0-2.832,1.656-4.488t4.536-1.656l16.32,0l0-3.024l-16.32,0q-3.696,0-6.432,2.736q-2.736,2.64-2.736,6.432q0,2.4,0.912,4.368t2.688,2.832q-1.776,1.296-2.688,3.408t-0.912,4.512q0,3.744,2.736,6.384q2.784,2.784,6.432,2.784l16.32,0l0-3.168l-16.32,0q-2.88,0-4.536-1.632t-1.656-4.368z M80.22432,45.008l-3.648,0l-10.224,25.392l-9.648-25.392l-3.024,0l12.672,33.792z M99.32064,45.2q-5.424,0-9.312,3.888q-3.936,3.936-3.936,9.36l0,7.248q0,5.328,3.936,9.264t9.312,3.936q5.424,0,9.36-3.936q3.888-3.888,3.888-9.264l0-7.248q0-5.472-3.888-9.36t-9.36-3.888z M109.59264,58.448l0,7.248q0,4.368-3.072,7.344q-3.024,2.88-7.2,2.88t-7.152-2.88q-3.072-2.976-3.072-7.344l0-7.248q0-4.032,3.072-7.2q3.072-3.072,7.152-3.072q4.032,0,7.2,3.072q3.072,3.168,3.072,7.2z M119.85696,78.896l23.472,0l0-2.448l-20.496,0l0-31.248l-2.976,0l0,33.696z M175.38528,45.152l-3.024,0l0,20.496q0,4.416-3.072,7.392q-3.024,2.88-7.2,2.88q-4.56,0-7.344-2.88q-2.832-2.928-2.832-7.392l0-20.496l-3.072,0l0,20.496q0,5.472,3.744,9.312q3.792,3.936,9.504,3.936q5.328,0,9.36-3.936q3.936-3.84,3.936-9.312l0-20.496z M207.2496,45.2l-26.016,0l0,2.928l11.808,0l0,30.768l2.976,0l0-30.768l11.232,0l0-2.928z M213.43392,78.848l3.024,0l0-33.744l-3.024,0l0,33.744z M236.89824,45.2q-5.424,0-9.312,3.888q-3.936,3.936-3.936,9.36l0,7.248q0,5.328,3.936,9.264t9.312,3.936q5.424,0,9.36-3.936q3.888-3.888,3.888-9.264l0-7.248q0-5.472-3.888-9.36t-9.36-3.888z M247.17024,58.448l0,7.248q0,4.368-3.072,7.344q-3.024,2.88-7.2,2.88t-7.152-2.88q-3.072-2.976-3.072-7.344l0-7.248q0-4.032,3.072-7.2q3.072-3.072,7.152-3.072q4.032,0,7.2,3.072q3.072,3.168,3.072,7.2z M257.19456,78.8l2.976,0l0-20.352q0-4.032,3.072-7.2q3.072-3.072,7.104-3.072t7.2,3.072q3.072,3.168,3.072,7.2l0,20.352l2.976,0l0-20.352q0-5.472-3.888-9.36t-9.36-3.888q-5.376,0-9.264,3.888t-3.888,9.36l0,20.352z"/></svg>
