<?xml version="1.0" encoding="iso-8859-1"?>
<!-- Uploaded to: SVG Repo, www.svgrepo.com, Generator: SVG Repo Mixer Tools -->
<svg height="800px" width="800px" version="1.1" id="Layer_1" xmlns="http://www.w3.org/2000/svg" xmlns:xlink="http://www.w3.org/1999/xlink" 
	 viewBox="0 0 512 512" xml:space="preserve">
<g transform="translate(1 1)">
	<path style="fill:#FFDD09;" d="M255,434.2h-25.6c-5.12,0-8.533-3.413-8.533-8.533s3.413-8.533,8.533-8.533H255
		c5.12,0,8.533,3.413,8.533,8.533S260.12,434.2,255,434.2z M195.267,434.2h-34.133c-5.12,0-8.533-3.413-8.533-8.533
		s3.413-8.533,8.533-8.533h34.133c5.12,0,8.533,3.413,8.533,8.533S200.387,434.2,195.267,434.2z"/>
	<path style="fill:#FFFFFF;" d="M21.187,7.533c-7.68,0-13.653,5.973-13.653,13.653v143.36c0,7.68,5.973,13.653,13.653,13.653h25.6
		c-7.68,0-13.653-5.973-13.653-13.653V21.187c0-7.68,5.973-13.653,13.653-13.653"/>
	<path style="fill:#FD9808;" d="M190.147,7.533c7.68,0,13.653,5.973,13.653,13.653v143.36c0,7.68-5.973,13.653-13.653,13.653h25.6
		c7.68,0,13.653-5.973,13.653-13.653V21.187c0-7.68-5.973-13.653-13.653-13.653"/>
	<path style="fill:#FFDD09;" d="M141.507,229.4H94.573c-5.12,0-10.24-5.12-10.24-11.093V178.2H152.6v40.107
		C152.6,224.28,147.48,229.4,141.507,229.4"/>
	<path style="fill:#FFFFFF;" d="M84.333,218.307V178.2H67.267v40.107c0,5.973,5.12,11.093,11.093,11.093h17.067
		C89.453,229.4,84.333,224.28,84.333,218.307"/>
	<path style="fill:#FD9808;" d="M152.6,178.2v40.107c0,5.973-5.12,11.093-11.093,11.093h17.067c5.973,0,11.093-5.12,11.093-11.093
		V178.2H152.6z"/>
	<path style="fill:#FFDD09;" d="M198.68,178.2H38.253c-7.68,0-13.653-5.973-13.653-13.653V21.187c0-7.68,5.973-13.653,13.653-13.653
		H198.68c7.68,0,13.653,5.973,13.653,13.653v143.36C212.333,172.227,206.36,178.2,198.68,178.2"/>
	<path style="fill:#54C9FD;" d="M41.667,132.12V53.613c0-6.827,5.12-11.947,11.947-11.947H157.72c6.827,0,11.947,5.12,11.947,11.947
		v78.507c0,6.827-5.12,11.947-11.947,11.947H53.613C46.787,144.067,41.667,138.947,41.667,132.12"/>
	<path style="fill:#33A9F8;" d="M183.32,41.667h-25.6c6.827,0,11.947,5.12,11.947,11.947v78.507c0,6.827-5.12,11.947-11.947,11.947
		h25.6c6.827,0,11.947-5.12,11.947-11.947V53.613C195.267,46.787,190.147,41.667,183.32,41.667"/>
	<path style="fill:#FFFFFF;" d="M294.253,280.6c-7.68,0-13.653,5.973-13.653,13.653v143.36c0,7.68,5.973,13.653,13.653,13.653h25.6
		c-7.68,0-13.653-5.973-13.653-13.653v-143.36c0-7.68,5.973-13.653,13.653-13.653"/>
	<path style="fill:#FD9808;" d="M463.213,280.6c7.68,0,13.653,5.973,13.653,13.653v143.36c0,7.68-5.973,13.653-13.653,13.653h25.6
		c7.68,0,13.653-5.973,13.653-13.653v-143.36c0-7.68-5.973-13.653-13.653-13.653"/>
	<path style="fill:#FFDD09;" d="M414.573,502.467H367.64c-5.973,0-11.093-5.12-11.093-11.093v-40.107h68.267v40.107
		C425.667,497.347,420.547,502.467,414.573,502.467"/>
	<path style="fill:#FFFFFF;" d="M357.4,491.373v-40.107h-17.067v40.107c0,5.973,5.12,11.093,11.093,11.093h17.067
		C362.52,502.467,357.4,497.347,357.4,491.373"/>
	<path style="fill:#FD9808;" d="M425.667,451.267v40.107c0,5.973-5.12,11.093-11.093,11.093h17.067
		c5.973,0,11.093-5.12,11.093-11.093v-40.107H425.667z"/>
	<path style="fill:#FFDD09;" d="M471.747,451.267H311.32c-7.68,0-13.653-5.973-13.653-13.653v-143.36
		c0-7.68,5.973-13.653,13.653-13.653h160.427c7.68,0,13.653,5.973,13.653,13.653v143.36
		C485.4,445.293,479.427,451.267,471.747,451.267"/>
	<path style="fill:#54C9FD;" d="M314.733,405.187V326.68c0-6.827,5.12-11.947,11.947-11.947h104.107
		c6.827,0,11.947,5.12,11.947,11.947v78.507c0,6.827-5.12,11.947-11.947,11.947H326.68
		C319.853,417.133,314.733,412.013,314.733,405.187"/>
	<path style="fill:#33A9F8;" d="M456.387,314.733h-25.6c6.827,0,11.947,5.12,11.947,11.947v78.507
		c0,6.827-5.12,11.947-11.947,11.947h25.6c6.827,0,11.947-5.12,11.947-11.947V326.68
		C468.333,319.853,463.213,314.733,456.387,314.733"/>
	<g>
		<path style="fill:#FFDD09;" d="M127,408.6c-5.12,0-8.533-3.413-8.533-8.533v-25.6c0-5.12,3.413-8.533,8.533-8.533
			s8.533,3.413,8.533,8.533v25.6C135.533,405.187,132.12,408.6,127,408.6z M127,348.867c-5.12,0-8.533-3.413-8.533-8.533v-25.6
			c0-5.12,3.413-8.533,8.533-8.533s8.533,3.413,8.533,8.533v25.6C135.533,345.453,132.12,348.867,127,348.867z M127,289.133
			c-5.12,0-8.533-3.413-8.533-8.533v-34.133c0-5.12,3.413-8.533,8.533-8.533s8.533,3.413,8.533,8.533V280.6
			C135.533,285.72,132.12,289.133,127,289.133z"/>
		<path style="fill:#FFDD09;" d="M391.533,101.4h-25.6c-5.12,0-8.533-3.413-8.533-8.533s3.413-8.533,8.533-8.533h25.6
			c5.12,0,8.533,3.413,8.533,8.533S396.653,101.4,391.533,101.4z M331.8,101.4h-25.6c-5.12,0-8.533-3.413-8.533-8.533
			s3.413-8.533,8.533-8.533h25.6c5.12,0,8.533,3.413,8.533,8.533S336.92,101.4,331.8,101.4z M272.067,101.4h-34.133
			c-5.12,0-8.533-3.413-8.533-8.533s3.413-8.533,8.533-8.533h34.133c5.12,0,8.533,3.413,8.533,8.533S277.187,101.4,272.067,101.4z"
			/>
		<path style="fill:#FFDD09;" d="M425.667,306.2c-5.12,0-8.533-3.413-8.533-8.533v-34.133c0-5.12,3.413-8.533,8.533-8.533
			c5.12,0,8.533,3.413,8.533,8.533v34.133C434.2,302.787,430.787,306.2,425.667,306.2z M425.667,237.933
			c-5.12,0-8.533-3.413-8.533-8.533v-25.6c0-5.12,3.413-8.533,8.533-8.533c5.12,0,8.533,3.413,8.533,8.533v25.6
			C434.2,234.52,430.787,237.933,425.667,237.933z M425.667,178.2c-5.12,0-8.533-3.413-8.533-8.533v-34.133
			c0-5.12,3.413-8.533,8.533-8.533c5.12,0,8.533,3.413,8.533,8.533v34.133C434.2,174.787,430.787,178.2,425.667,178.2z"/>
	</g>
	<g>
		<path style="fill:#54C9FD;" d="M152.6,417.133c0,18.773-15.36,34.133-34.133,34.133s-34.133-15.36-34.133-34.133
			S99.693,383,118.467,383S152.6,398.36,152.6,417.133"/>
		<path style="fill:#54C9FD;" d="M417.133,118.467c18.773,0,34.133-15.36,34.133-34.133S435.907,50.2,417.133,50.2
			S383,65.56,383,84.333S398.36,118.467,417.133,118.467"/>
	</g>
	<path d="M215.747,186.733H21.187C9.24,186.733-1,176.493-1,164.547V21.187C-1,9.24,9.24-1,21.187-1h194.56
		c11.947,0,22.187,10.24,22.187,22.187v143.36C237.933,176.493,227.693,186.733,215.747,186.733z M21.187,16.067
		c-2.56,0-5.12,2.56-5.12,5.12v143.36c0,2.56,2.56,5.12,5.12,5.12h194.56c2.56,0,5.12-2.56,5.12-5.12V21.187
		c0-2.56-2.56-5.12-5.12-5.12H21.187z"/>
	<path d="M183.32,152.6H53.613c-11.093,0-20.48-9.387-20.48-20.48V53.613c0-11.093,9.387-20.48,20.48-20.48H183.32
		c11.093,0,20.48,9.387,20.48,20.48v78.507C203.8,143.213,194.413,152.6,183.32,152.6z M53.613,50.2
		c-1.707,0-3.413,1.707-3.413,3.413v78.507c0,1.707,1.707,3.413,3.413,3.413H183.32c1.707,0,3.413-1.707,3.413-3.413V53.613
		c0-1.707-1.707-3.413-3.413-3.413H53.613z"/>
	<path d="M456.387,425.667H326.68c-11.093,0-20.48-9.387-20.48-20.48V326.68c0-11.093,9.387-20.48,20.48-20.48h129.707
		c11.093,0,20.48,9.387,20.48,20.48v78.507C476.867,416.28,467.48,425.667,456.387,425.667z M326.68,323.267
		c-1.707,0-3.413,1.707-3.413,3.413v78.507c0,1.707,1.707,3.413,3.413,3.413h129.707c1.707,0,3.413-1.707,3.413-3.413V326.68
		c0-1.707-1.707-3.413-3.413-3.413H326.68z"/>
	<path d="M158.573,237.933H78.36c-11.093,0-19.627-8.533-19.627-19.627v-48.64H178.2v48.64
		C178.2,229.4,169.667,237.933,158.573,237.933z M75.8,186.733v31.573c0,1.707,0.853,2.56,2.56,2.56h81.067
		c0.853,0,2.56-0.853,2.56-2.56v-31.573H75.8z"/>
	<path d="M431.64,511h-81.067c-10.24,0-18.773-8.533-18.773-19.627v-48.64h119.467v48.64C451.267,502.467,442.733,511,431.64,511z
		 M348.867,459.8v31.573c0,0.853,0.853,2.56,2.56,2.56h81.067c0.853,0,2.56-0.853,2.56-2.56V459.8H348.867z"/>
	<path d="M488.813,459.8h-194.56c-11.947,0-22.187-10.24-22.187-22.187v-143.36c0-11.947,10.24-22.187,22.187-22.187h194.56
		c11.947,0,22.187,10.24,22.187,22.187v143.36C511,449.56,500.76,459.8,488.813,459.8z M294.253,289.133
		c-2.56,0-5.12,2.56-5.12,5.12v143.36c0,2.56,2.56,5.12,5.12,5.12h194.56c2.56,0,5.12-2.56,5.12-5.12v-143.36
		c0-2.56-2.56-5.12-5.12-5.12H294.253z"/>
	<path d="M118.467,459.8c-23.893,0-42.667-18.773-42.667-42.667c0-23.893,18.773-42.667,42.667-42.667s42.667,18.773,42.667,42.667
		C161.133,441.027,142.36,459.8,118.467,459.8z M118.467,391.533c-14.507,0-25.6,11.093-25.6,25.6c0,14.507,11.093,25.6,25.6,25.6
		s25.6-11.093,25.6-25.6C144.067,402.627,132.973,391.533,118.467,391.533z"/>
	<path d="M118.467,391.533c-5.12,0-8.533-3.413-8.533-8.533v-25.6c0-5.12,3.413-8.533,8.533-8.533S127,352.28,127,357.4V383
		C127,388.12,123.587,391.533,118.467,391.533z M118.467,331.8c-5.12,0-8.533-3.413-8.533-8.533v-25.6
		c0-5.12,3.413-8.533,8.533-8.533s8.533,3.413,8.533,8.533v25.6C127,328.387,123.587,331.8,118.467,331.8z M118.467,272.067
		c-5.12,0-8.533-3.413-8.533-8.533V229.4c0-5.12,3.413-8.533,8.533-8.533S127,224.28,127,229.4v34.133
		C127,268.653,123.587,272.067,118.467,272.067z"/>
	<path d="M246.467,425.667h-25.6c-5.12,0-8.533-3.413-8.533-8.533s3.413-8.533,8.533-8.533h25.6c5.12,0,8.533,3.413,8.533,8.533
		S251.587,425.667,246.467,425.667z M186.733,425.667H152.6c-5.12,0-8.533-3.413-8.533-8.533s3.413-8.533,8.533-8.533h34.133
		c5.12,0,8.533,3.413,8.533,8.533S191.853,425.667,186.733,425.667z"/>
	<path d="M417.133,127c-23.893,0-42.667-18.773-42.667-42.667s18.773-42.667,42.667-42.667c23.893,0,42.667,18.773,42.667,42.667
		S441.027,127,417.133,127z M417.133,58.733c-14.507,0-25.6,11.093-25.6,25.6s11.093,25.6,25.6,25.6c14.507,0,25.6-11.093,25.6-25.6
		S431.64,58.733,417.133,58.733z"/>
	<path d="M383,92.867h-25.6c-5.12,0-8.533-3.413-8.533-8.533S352.28,75.8,357.4,75.8H383c5.12,0,8.533,3.413,8.533,8.533
		S388.12,92.867,383,92.867z M323.267,92.867h-25.6c-5.12,0-8.533-3.413-8.533-8.533s3.413-8.533,8.533-8.533h25.6
		c5.12,0,8.533,3.413,8.533,8.533S328.387,92.867,323.267,92.867z M263.533,92.867H229.4c-5.12,0-8.533-3.413-8.533-8.533
		S224.28,75.8,229.4,75.8h34.133c5.12,0,8.533,3.413,8.533,8.533S268.653,92.867,263.533,92.867z"/>
	<path d="M417.133,289.133c-5.12,0-8.533-3.413-8.533-8.533v-34.133c0-5.12,3.413-8.533,8.533-8.533c5.12,0,8.533,3.413,8.533,8.533
		V280.6C425.667,285.72,422.253,289.133,417.133,289.133z M417.133,220.867c-5.12,0-8.533-3.413-8.533-8.533v-25.6
		c0-5.12,3.413-8.533,8.533-8.533c5.12,0,8.533,3.413,8.533,8.533v25.6C425.667,217.453,422.253,220.867,417.133,220.867z
		 M417.133,161.133c-5.12,0-8.533-3.413-8.533-8.533v-34.133c0-5.12,3.413-8.533,8.533-8.533c5.12,0,8.533,3.413,8.533,8.533V152.6
		C425.667,157.72,422.253,161.133,417.133,161.133z"/>
</g>
</svg>