<?xml version="1.0" encoding="iso-8859-1"?>
<!-- Uploaded to: SVG Repo, www.svgrepo.com, Generator: SVG Repo Mixer Tools -->
<svg height="800px" width="800px" version="1.1" id="Layer_1" xmlns="http://www.w3.org/2000/svg" xmlns:xlink="http://www.w3.org/1999/xlink" 
	 viewBox="0 0 511.999 511.999" xml:space="preserve">
<path style="fill:#FDD042;" d="M450.653,380.048L389.246,73.736c-0.452-2.257-1.783-4.241-3.698-5.517
	c-1.917-1.278-4.261-1.74-6.516-1.287L72.72,128.341c-4.699,0.942-7.745,5.515-6.802,10.214l61.406,306.311
	c0.827,4.124,4.45,6.975,8.499,6.975c0.565,0,1.14-0.056,1.715-0.171l306.312-61.406
	C448.548,389.321,451.596,384.747,450.653,380.048z"/>
<path style="fill:#F2C127;" d="M72.72,128.341c-4.699,0.942-7.745,5.515-6.802,10.214l61.406,306.311
	c0.827,4.124,4.45,6.975,8.499,6.975c0.565,0,1.14-0.056,1.715-0.171l31.153-6.245l-65.916-323.108L72.72,128.341z"/>
<g>
	<path style="fill:#FFFFFF;" d="M185.098,247.422c-0.942-4.7-5.521-7.746-10.214-6.802l-42.544,8.529
		c-4.699,0.942-7.745,5.515-6.802,10.214l13.646,68.069c0.94,4.694,5.688,7.799,10.366,6.77c4.56-1.004,7.569-5.597,6.651-10.18
		l-5.118-25.526l17.017-3.412c4.699-0.942,7.745-5.515,6.802-10.214c-0.942-4.7-5.519-7.745-10.214-6.802l-17.019,3.412
		l-3.412-17.017l34.035-6.824C182.995,256.693,186.041,252.121,185.098,247.422z"/>
	<path style="fill:#FFFFFF;" d="M215.753,320.759c-4.049,0-7.672-2.851-8.499-6.975l-13.646-68.069
		c-0.93-4.636,2.173-9.285,6.802-10.214l42.544-8.528c4.693-0.94,9.272,2.102,10.214,6.802l6.823,34.034
		c0.943,4.699-2.103,9.272-6.802,10.214l-8.51,1.706l19.41,17.35c3.525,3.151,3.837,8.728,0.686,12.253
		c-3.152,3.525-8.728,3.839-12.253,0.686l-32.348-28.917c-1.405-1.255-2.333-2.904-2.708-4.68l6.806,33.951
		C225.332,315.669,221.154,320.759,215.753,320.759z M212.329,250.814l5.1,25.439c-0.242-1.271-0.201-2.602,0.153-3.9
		c0.863-3.172,3.444-5.582,6.667-6.229l17.017-3.413l-3.413-17.017L212.329,250.814z"/>
	<path style="fill:#FFFFFF;" d="M334.883,288.199c-0.942-4.7-5.519-7.745-10.214-6.802l-25.526,5.118l-3.411-17.017l17.017-3.412
		c4.699-0.942,7.745-5.515,6.802-10.214c-0.942-4.7-5.519-7.747-10.214-6.802l-17.019,3.412l-3.411-17.017l25.526-5.118
		c4.699-0.942,7.745-5.515,6.802-10.214c-0.942-4.7-5.521-7.745-10.214-6.802l-34.035,6.823c-2.257,0.452-4.241,1.783-5.517,3.698
		c-1.277,1.916-1.739,4.26-1.286,6.516l13.646,68.069c0.929,4.636,5.577,7.734,10.214,6.802l34.035-6.823
		C332.779,297.471,335.825,292.898,334.883,288.199z"/>
	<path style="fill:#FFFFFF;" d="M394.443,276.26c-0.942-4.7-5.522-7.746-10.214-6.802l-25.525,5.117l-3.411-17.017l17.016-3.412
		c4.699-0.942,7.746-5.515,6.802-10.214c-0.942-4.7-5.521-7.746-10.214-6.802l-17.017,3.412l-3.412-17.017l25.525-5.118
		c4.699-0.942,7.745-5.515,6.802-10.214c-0.942-4.7-5.521-7.745-10.214-6.802l-34.034,6.823c-4.699,0.942-7.746,5.515-6.802,10.214
		l13.646,68.069c0.929,4.636,5.577,7.734,10.214,6.802l34.034-6.822C392.339,285.531,395.384,280.959,394.443,276.26z"/>
</g>
<path style="fill:#606268;" d="M314.393,141.846l-3.411-17.017c-0.452-2.256-1.783-4.241-3.698-5.517
	c-1.917-1.278-4.262-1.739-6.516-1.287l-136.139,27.292c-4.699,0.942-7.745,5.515-6.802,10.214l3.412,17.017
	c2.278,11.365,8.845,21.16,18.492,27.585c7.209,4.801,15.492,7.289,23.962,7.289c2.864,0,5.748-0.284,8.618-0.86l68.069-13.646
	c11.365-2.278,21.161-8.844,27.585-18.491C314.387,164.781,316.672,153.21,314.393,141.846z"/>
<path style="fill:#4C4E55;" d="M314.393,141.846l-2.055-10.248c0.507,9.284-1.975,18.447-7.222,26.326
	c-6.424,9.647-16.22,16.213-27.585,18.491l-68.069,13.646c-2.87,0.576-5.756,0.86-8.618,0.86c-8.47,0-16.753-2.488-23.962-7.289
	c-9.647-6.425-16.214-16.22-18.492-27.585l-0.662-3.301c-0.114,0.905-0.092,1.842,0.097,2.786l3.412,17.017
	c2.278,11.365,8.845,21.16,18.492,27.585c7.209,4.801,15.492,7.289,23.962,7.289c2.864,0,5.748-0.284,8.618-0.86l68.069-13.646
	c11.365-2.278,21.161-8.844,27.585-18.491C314.387,164.781,316.672,153.21,314.393,141.846z"/>
<g>
	<path style="fill:#E1A527;" d="M406.303,158.824l-10.428-52.02c-1.628-4.506-5.967-6.649-10.02-5.835l-59.561,11.941
		c-6.885,1.381-9.117,9.962-4.255,14.82l17.869,17.853l-9.586,23.312c-1.196,2.908-0.888,6.364,1.049,8.883
		c1.979,2.572,5.389,3.842,8.569,3.201l59.56-11.941C404.199,168.096,407.245,163.523,406.303,158.824z"/>
	<path style="fill:#E1A527;" d="M139.135,185.831l9.699-23.587c2.584-6.285-3.067-13.156-9.731-11.81l-59.56,11.94
		c-4.699,0.942-7.745,5.515-6.802,10.214l10.235,51.052c0.929,4.631,5.578,7.732,10.214,6.802l59.561-11.941
		c6.657-1.335,9.246-9.833,4.428-14.647L139.135,185.831z"/>
</g>
<g>
	<path style="fill:#606268;" d="M161.329,402.475c-4.049,0-7.672-2.851-8.499-6.975l-5.118-25.526
		c-0.943-4.699,2.103-9.272,6.802-10.214c4.694-0.943,9.272,2.102,10.214,6.802l5.118,25.526
		C170.909,397.386,166.73,402.475,161.329,402.475z"/>
	<path style="fill:#606268;" d="M195.364,395.652c-4.049,0-7.672-2.851-8.499-6.975l-5.118-25.526
		c-0.943-4.699,2.103-9.272,6.802-10.214c4.692-0.943,9.272,2.102,10.214,6.802l5.118,25.526
		C204.944,390.563,200.765,395.652,195.364,395.652z"/>
	<path style="fill:#606268;" d="M237.908,387.123c-4.049,0-7.672-2.851-8.499-6.975l-5.118-25.525
		c-0.943-4.699,2.103-9.272,6.802-10.214c4.694-0.94,9.272,2.102,10.214,6.802l5.118,25.525
		C247.488,382.032,243.309,387.123,237.908,387.123z"/>
	<path style="fill:#606268;" d="M280.45,378.594c-4.049,0-7.672-2.851-8.499-6.975l-5.118-25.525
		c-0.943-4.699,2.103-9.272,6.802-10.214c4.693-0.943,9.272,2.102,10.214,6.802l5.118,25.525
		C290.031,373.504,285.851,378.594,280.45,378.594z"/>
	<path style="fill:#606268;" d="M314.484,371.771c-4.05,0-7.672-2.851-8.499-6.975l-5.117-25.525
		c-0.942-4.699,2.103-9.272,6.802-10.214c4.692-0.944,9.272,2.102,10.214,6.802l5.117,25.525
		C324.063,366.681,319.886,371.771,314.484,371.771z"/>
	<path style="fill:#606268;" d="M340.011,366.655c-4.049,0-7.672-2.851-8.499-6.975l-5.118-25.526
		c-0.943-4.699,2.103-9.272,6.802-10.214c4.693-0.943,9.272,2.102,10.214,6.802l5.118,25.526
		C349.592,361.564,345.412,366.655,340.011,366.655z"/>
	<path style="fill:#606268;" d="M365.536,361.537c-4.05,0-7.672-2.851-8.499-6.975l-5.117-25.526
		c-0.942-4.699,2.103-9.272,6.802-10.214c4.694-0.945,9.272,2.102,10.214,6.802l5.117,25.526
		C375.116,356.446,370.937,361.537,365.536,361.537z"/>
	<path style="fill:#606268;" d="M399.571,354.714c-4.049,0-7.672-2.851-8.499-6.975l-5.118-25.526
		c-0.943-4.699,2.103-9.272,6.802-10.214c4.692-0.943,9.272,2.102,10.214,6.802l5.118,25.526
		C409.152,349.623,404.972,354.714,399.571,354.714z"/>
</g>
<path style="fill:#4C4E55;" d="M135.832,451.839c-4.086,0-7.706-2.97-8.509-6.973L43.742,27.943L10.385,34.63
	c-4.695,0.942-9.272-2.102-10.214-6.802c-0.942-4.699,2.103-9.272,6.802-10.214L48.84,9.221c4.694-0.943,9.272,2.102,10.214,6.802
	l83.582,416.924l357.363-71.642c4.69-0.944,9.272,2.102,10.214,6.802c0.943,4.699-2.103,9.272-6.802,10.214L137.538,451.67
	C136.972,451.782,136.401,451.839,135.832,451.839z"/>
<circle style="fill:#74DBC9;" cx="317.949" cy="468.603" r="43.39"/>
<circle style="fill:#6AC8B7;" cx="317.949" cy="468.603" r="26.045"/>
<circle style="fill:#EBEBEC;" cx="317.949" cy="468.603" r="17.356"/>
<g>
	<path style="fill:#D7D8D9;" d="M199.593,34.718c-9.408,0-17.356-11.921-17.356-26.034c0-4.792-3.886-8.678-8.678-8.678
		c-4.792,0-8.678,3.886-8.678,8.678c0,14.113-7.948,26.034-17.356,26.034c-4.792,0-8.678,3.886-8.678,8.678s3.886,8.678,8.678,8.678
		c9.408,0,17.356,11.921,17.356,26.034c0,4.792,3.886,8.678,8.678,8.678c4.792,0,8.678-3.886,8.678-8.678
		c0-14.113,7.948-26.034,17.356-26.034c4.792,0,8.678-3.886,8.678-8.678S204.386,34.718,199.593,34.718z"/>
	<path style="fill:#D7D8D9;" d="M503.322,199.599c-9.408,0-17.356-11.921-17.356-26.034c0-4.792-3.886-8.678-8.678-8.678
		s-8.678,3.886-8.678,8.678c0,14.113-7.948,26.034-17.356,26.034c-4.792,0-8.678,3.886-8.678,8.678c0,4.792,3.886,8.678,8.678,8.678
		c9.408,0,17.356,11.921,17.356,26.034c0,4.792,3.886,8.678,8.678,8.678s8.678-3.886,8.678-8.678
		c0-14.113,7.948-26.034,17.356-26.034c4.792,0,8.678-3.886,8.678-8.678C511.999,203.485,508.114,199.599,503.322,199.599z"/>
	<path style="fill:#D7D8D9;" d="M60.746,364.48c-9.408,0-17.356-11.921-17.356-26.034c0-4.792-3.886-8.678-8.678-8.678
		c-4.792,0-8.678,3.886-8.678,8.678c0,14.113-7.948,26.034-17.356,26.034c-4.792,0-8.678,3.886-8.678,8.678s3.886,8.678,8.678,8.678
		c9.408,0,17.356,11.921,17.356,26.034c0,4.792,3.886,8.678,8.678,8.678c4.792,0,8.678-3.886,8.678-8.678
		c0-14.113,7.948-26.034,17.356-26.034c4.792,0,8.678-3.886,8.678-8.678S65.539,364.48,60.746,364.48z"/>
</g>
</svg>